<svg aria-hidden="true" style="position: absolute; width: 0; height: 0; overflow: hidden;" version="1.1" xmlns="http://www.w3.org/2000/svg" xmlns:xlink="http://www.w3.org/1999/xlink">
<defs>
<symbol id="logo" viewBox="0 0 150 32">
<path stroke-linejoin="round" stroke-linecap="round" stroke-miterlimit="4" stroke-width="1.5" d="M26.5 16c1.381 0 2.5-1.119 2.5-2.5s-1.119-2.5-2.5-2.5c-1.381 0-2.5 1.119-2.5 2.5s1.119 2.5 2.5 2.5z"></path>
<path stroke-linejoin="round" stroke-linecap="round" stroke-miterlimit="4" stroke-width="1.5" d="M5.5 16c1.381 0 2.5-1.119 2.5-2.5s-1.119-2.5-2.5-2.5c-1.381 0-2.5 1.119-2.5 2.5s1.119 2.5 2.5 2.5z"></path>
<path stroke-linejoin="round" stroke-linecap="round" stroke-miterlimit="4" stroke-width="1.5" d="M11.5 10c1.381 0 2.5-1.119 2.5-2.5s-1.119-2.5-2.5-2.5c-1.381 0-2.5 1.119-2.5 2.5s1.119 2.5 2.5 2.5z"></path>
<path stroke-linejoin="round" stroke-linecap="round" stroke-miterlimit="4" stroke-width="1.5" d="M20.5 10c1.381 0 2.5-1.119 2.5-2.5s-1.119-2.5-2.5-2.5c-1.381 0-2.5 1.119-2.5 2.5s1.119 2.5 2.5 2.5z"></path>
<path stroke-linejoin="round" stroke-linecap="round" stroke-miterlimit="4" stroke-width="1.5" d="M16 13c-0.975 0-1.924 0.318-2.703 0.904s-1.347 1.41-1.618 2.346c-0.4 1.378-1.329 2.542-2.584 3.238-0.911 0.486-1.599 1.305-1.92 2.286s-0.25 2.048 0.197 2.978c0.448 0.93 1.238 1.651 2.205 2.012s2.036 0.335 2.984-0.074c2.203-0.903 4.672-0.903 6.875 0 0.948 0.409 2.017 0.436 2.984 0.074s1.757-1.082 2.205-2.012c0.448-0.93 0.518-1.997 0.197-2.978s-1.009-1.8-1.92-2.286c-1.254-0.696-2.182-1.86-2.581-3.238-0.271-0.937-0.839-1.76-1.618-2.346s-1.728-0.903-2.703-0.904z"></path>
<path d="M142.97 25.742v-1.395c-0.109 0.128-0.264 0.287-0.464 0.479-0.192 0.182-0.616 0.428-1.272 0.738-0.656 0.301-1.34 0.451-2.051 0.451-1.367 0-2.479-0.378-3.336-1.135-0.856-0.766-1.285-1.691-1.285-2.775 0-1.121 0.36-2.055 1.080-2.803s1.714-1.235 2.981-1.463l4.347-0.779c0-0.574-0.209-1.044-0.628-1.408-0.42-0.364-1.003-0.547-1.75-0.547-0.62 0-1.185 0.118-1.696 0.355-0.51 0.228-0.87 0.465-1.080 0.711l-0.314 0.328-2.092-2.092c0.055-0.073 0.128-0.169 0.219-0.287 0.1-0.128 0.314-0.342 0.642-0.643 0.337-0.301 0.702-0.565 1.094-0.793 0.392-0.237 0.907-0.451 1.545-0.643 0.638-0.201 1.29-0.301 1.955-0.301 1.732 0 3.145 0.52 4.238 1.559 1.094 1.030 1.641 2.329 1.641 3.897v8.545h-3.774zM140.168 22.939c0.856 0 1.536-0.269 2.037-0.807 0.51-0.547 0.765-1.303 0.765-2.27v-0.424l-3.076 0.561c-1.030 0.164-1.545 0.679-1.545 1.545 0 0.93 0.606 1.395 1.819 1.395z"></path>
<path d="M131.623 12.016v13.727h-3.787v-13.727h3.787zM131.295 6.574c0.401 0.383 0.601 0.893 0.601 1.531 0 0.629-0.2 1.135-0.601 1.518s-0.948 0.574-1.641 0.574c-0.638 0-1.148-0.191-1.531-0.574-0.374-0.383-0.561-0.889-0.561-1.518 0-0.638 0.192-1.148 0.574-1.531s0.889-0.574 1.518-0.574c0.693 0 1.24 0.191 1.641 0.574z"></path>
<path d="M118.306 26.016c-0.783 0-1.517-0.16-2.201-0.479-0.674-0.328-1.153-0.652-1.435-0.971l-0.424-0.506v7.561h-3.774v-19.605h3.774v1.682c0.036-0.055 0.091-0.123 0.164-0.205 0.082-0.082 0.246-0.232 0.492-0.451 0.255-0.228 0.529-0.428 0.82-0.601 0.292-0.182 0.67-0.342 1.135-0.479 0.465-0.146 0.948-0.219 1.449-0.219 1.778 0 3.318 0.693 4.621 2.078 1.313 1.376 1.969 3.063 1.969 5.059s-0.656 3.687-1.969 5.072c-1.303 1.376-2.843 2.064-4.621 2.064zM119.988 16.172c-0.647-0.711-1.44-1.066-2.379-1.066-0.93 0-1.723 0.355-2.379 1.066-0.656 0.702-0.984 1.604-0.984 2.707s0.328 2.010 0.984 2.721c0.656 0.711 1.449 1.066 2.379 1.066 0.939 0 1.732-0.355 2.379-1.066 0.656-0.711 0.984-1.618 0.984-2.721s-0.328-2.005-0.984-2.707z"></path>
<path d="M98.031 16.295c-0.665 0.702-0.998 1.568-0.998 2.598 0 1.021 0.333 1.882 0.998 2.584 0.665 0.693 1.454 1.039 2.365 1.039s1.7-0.346 2.365-1.039c0.666-0.702 0.999-1.563 0.999-2.584 0-1.030-0.333-1.896-0.999-2.598s-1.453-1.053-2.365-1.053c-0.911 0-1.7 0.351-2.365 1.053zM105.496 13.889c1.449 1.422 2.174 3.085 2.174 4.99s-0.725 3.573-2.174 5.004c-1.44 1.422-3.14 2.133-5.1 2.133s-3.664-0.711-5.113-2.133c-1.449-1.431-2.174-3.099-2.174-5.004s0.725-3.568 2.174-4.99c1.449-1.431 3.154-2.146 5.113-2.146s3.66 0.716 5.1 2.146z"></path>
<path d="M84.865 10.484v-2.516h3.363v4.334h2.789v3.363h-2.789v5.455c0 0.428 0.155 0.793 0.465 1.094 0.319 0.301 0.72 0.451 1.203 0.451 0.246 0 0.483-0.023 0.711-0.068 0.237-0.055 0.415-0.109 0.533-0.164l0.164-0.055v3.227c-0.747 0.282-1.591 0.419-2.529 0.41-2.889 0-4.334-1.586-4.334-4.758v-5.592h-2.379v-3.363h1.258c0.428 0 0.793-0.169 1.094-0.506s0.451-0.775 0.451-1.313z"></path>
<path d="M73.517 10.484v-2.516h3.363v4.334h2.789v3.363h-2.789v5.455c0 0.428 0.155 0.793 0.465 1.094 0.319 0.301 0.72 0.451 1.203 0.451 0.246 0 0.483-0.023 0.711-0.068 0.237-0.055 0.415-0.109 0.533-0.164l0.164-0.055v3.227c-0.747 0.282-1.591 0.419-2.529 0.41-2.889 0-4.334-1.586-4.334-4.758v-5.592h-2.379v-3.363h1.258c0.428 0 0.793-0.169 1.094-0.506s0.451-0.775 0.451-1.313z"></path>
<path d="M68.883 20.137h-9.94c0.146 0.747 0.542 1.381 1.19 1.9 0.647 0.51 1.463 0.766 2.447 0.766 0.711 0 1.367-0.137 1.969-0.41 0.611-0.283 1.039-0.565 1.285-0.848l0.397-0.424 1.955 2.516-0.246 0.246c-0.118 0.119-0.365 0.314-0.738 0.588s-0.77 0.52-1.189 0.738c-0.419 0.21-0.966 0.396-1.641 0.561-0.665 0.164-1.354 0.246-2.065 0.246-2.014 0-3.732-0.697-5.154-2.092-1.422-1.404-2.133-3.085-2.133-5.045s0.702-3.637 2.105-5.031c1.404-1.404 3.085-2.106 5.045-2.106s3.591 0.656 4.894 1.969c1.303 1.303 1.955 2.935 1.955 4.895l-0.137 1.531zM64.193 15.68c-0.547-0.474-1.221-0.711-2.023-0.711s-1.486 0.232-2.051 0.697c-0.556 0.465-0.948 1.071-1.176 1.818h6.303c-0.146-0.729-0.497-1.331-1.053-1.805z"></path>
<path d="M38.244 6.137h8.258c2.014 0 3.682 0.633 5.004 1.9 1.331 1.258 1.996 2.821 1.996 4.689 0 1.859-0.661 3.422-1.982 4.689-1.322 1.258-2.994 1.887-5.018 1.887h-4.047v6.439h-4.211v-19.605zM46.365 9.924h-3.91v5.592h3.91c0.839 0 1.536-0.269 2.092-0.807 0.565-0.538 0.848-1.199 0.848-1.982s-0.283-1.445-0.848-1.982c-0.556-0.547-1.253-0.82-2.092-0.82z"></path>
</symbol>
<symbol id="discount" viewBox="0 0 32 32">
<path fill="none" stroke="#5d5d5d" style="stroke: var(--color2, #5d5d5d)" stroke-linejoin="round" stroke-linecap="round" stroke-miterlimit="4" stroke-width="2.6667" d="M5.144 11.488c-0.195-0.877-0.165-1.788 0.087-2.65s0.717-1.647 1.352-2.281c0.636-0.634 1.421-1.098 2.284-1.348s1.774-0.278 2.65-0.081c0.482-0.754 1.147-1.375 1.932-1.805s1.666-0.655 2.561-0.655c0.895 0 1.776 0.225 2.561 0.655s1.45 1.051 1.932 1.805c0.877-0.197 1.791-0.169 2.655 0.081s1.65 0.715 2.286 1.351 1.101 1.423 1.351 2.286c0.251 0.864 0.278 1.777 0.081 2.655 0.754 0.482 1.375 1.147 1.805 1.932s0.655 1.666 0.655 2.561c0 0.895-0.225 1.776-0.655 2.561s-1.051 1.45-1.805 1.932c0.196 0.876 0.168 1.788-0.081 2.65s-0.713 1.648-1.348 2.284c-0.634 0.636-1.419 1.101-2.281 1.352s-1.774 0.281-2.65 0.087c-0.482 0.757-1.147 1.381-1.933 1.812s-1.669 0.658-2.567 0.658c-0.897 0-1.78-0.226-2.567-0.658s-1.451-1.055-1.933-1.812c-0.876 0.196-1.788 0.168-2.65-0.081s-1.648-0.713-2.284-1.348c-0.636-0.634-1.101-1.419-1.352-2.281s-0.282-1.773-0.087-2.65c-0.76-0.481-1.386-1.146-1.82-1.934s-0.661-1.673-0.661-2.572c0-0.899 0.227-1.784 0.661-2.572s1.060-1.453 1.82-1.934z"></path>
<path fill="none" stroke="#5d5d5d" style="stroke: var(--color2, #5d5d5d)" stroke-linejoin="round" stroke-linecap="round" stroke-miterlimit="4" stroke-width="2.6667" d="M20.011 11.995l-8 8"></path>
<path fill="none" stroke="#5d5d5d" style="stroke: var(--color2, #5d5d5d)" stroke-linejoin="round" stroke-linecap="round" stroke-miterlimit="4" stroke-width="2.6667" d="M12.011 11.995h0.013"></path>
<path fill="none" stroke="#5d5d5d" style="stroke: var(--color2, #5d5d5d)" stroke-linejoin="round" stroke-linecap="round" stroke-miterlimit="4" stroke-width="2.6667" d="M20.011 19.995h0.013"></path>
</symbol>
<symbol id="dogs" viewBox="0 0 32 32">
<path fill="none" stroke="#5d5d5d" style="stroke: var(--color2, #5d5d5d)" stroke-linejoin="round" stroke-linecap="round" stroke-miterlimit="4" stroke-width="2.6667" d="M13.155 6.933c0-1.853-2.103-3.324-4.667-2.896-3.764 0.627-5.484 8.008-5.333 9.333 0.107 0.937 2.3 2.296 4.875 1.333 1.681-0.629 2.613-1.933 3.125-3.333"></path>
<path fill="none" stroke="#5d5d5d" style="stroke: var(--color2, #5d5d5d)" stroke-linejoin="round" stroke-linecap="round" stroke-miterlimit="4" stroke-width="2.6667" d="M18.845 6.933c0-1.853 2.103-3.324 4.667-2.896 3.764 0.627 5.484 8.008 5.333 9.333-0.107 0.937-2.3 2.296-4.875 1.333-1.681-0.629-2.473-1.933-2.985-3.333"></path>
<path fill="none" stroke="#5d5d5d" style="stroke: var(--color2, #5d5d5d)" stroke-linejoin="round" stroke-linecap="round" stroke-miterlimit="4" stroke-width="2.6667" d="M10.489 18.704v0.667"></path>
<path fill="none" stroke="#5d5d5d" style="stroke: var(--color2, #5d5d5d)" stroke-linejoin="round" stroke-linecap="round" stroke-miterlimit="4" stroke-width="2.6667" d="M21.155 18.704v0.667"></path>
<path fill="none" stroke="#5d5d5d" style="stroke: var(--color2, #5d5d5d)" stroke-linejoin="round" stroke-linecap="round" stroke-miterlimit="4" stroke-width="2.6667" d="M14.822 21.704h2l-1 1-1-1z"></path>
<path fill="none" stroke="#5d5d5d" style="stroke: var(--color2, #5d5d5d)" stroke-linejoin="round" stroke-linecap="round" stroke-miterlimit="4" stroke-width="2.6667" d="M5.715 15.033c-0.373 1.441-0.561 2.924-0.56 4.412 0 5.563 4.776 8.592 10.667 8.592s10.667-3.029 10.667-8.592c0-1.415-0.216-2.933-0.657-4.412M13.507 6.924c0.762-0.15 1.538-0.223 2.315-0.22 1.040 0 2 0.144 2.881 0.408"></path>
</symbol>
<symbol id="cats" viewBox="0 0 32 32">
<path fill="none" stroke="#5d5d5d" style="stroke: var(--color2, #5d5d5d)" stroke-linejoin="round" stroke-linecap="round" stroke-miterlimit="4" stroke-width="2.6667" d="M16.007 6.789c0.893 0 1.8 0.12 2.667 0.347 2.373-2.667 6.707-3.787 8.56-3.013 1.867 0.773-0.56 9.333-0.56 9.333 0.76 1.427 1.333 2.987 1.333 4.587 0 5.947-5.373 10.080-12 10.080s-12-4-12-10.080c0-1.667 0.667-3.2 1.333-4.587 0 0-2.52-8.56-0.667-9.333s6.293 0.307 8.667 2.973c0.875-0.201 1.769-0.304 2.667-0.307z"></path>
<path fill="none" stroke="#5d5d5d" style="stroke: var(--color2, #5d5d5d)" stroke-linejoin="round" stroke-linecap="round" stroke-miterlimit="4" stroke-width="2.6667" d="M10.674 18.789v0.667"></path>
<path fill="none" stroke="#5d5d5d" style="stroke: var(--color2, #5d5d5d)" stroke-linejoin="round" stroke-linecap="round" stroke-miterlimit="4" stroke-width="2.6667" d="M21.34 18.789v0.667"></path>
<path fill="none" stroke="#5d5d5d" style="stroke: var(--color2, #5d5d5d)" stroke-linejoin="round" stroke-linecap="round" stroke-miterlimit="4" stroke-width="2.6667" d="M15.007 21.789h2l-1 1-1-1z"></path>
</symbol>
<symbol id="rodents" viewBox="0 0 32 32">
<path fill="none" stroke="#5d5d5d" style="stroke: var(--color2, #5d5d5d)" stroke-linejoin="round" stroke-linecap="round" stroke-miterlimit="4" stroke-width="2.6667" d="M22.724 6.667c0-2.267-1.733-4-4-4s-4 1.733-4 4c0 1.067 0.4 2 1.067 2.667h-1.067c-5.2 0-9.333 4.133-9.333 9.333 0 2.933 2.4 5.333 5.333 5.333"></path>
<path fill="none" stroke="#5d5d5d" style="stroke: var(--color2, #5d5d5d)" stroke-linejoin="round" stroke-linecap="round" stroke-miterlimit="4" stroke-width="2.6667" d="M22.457 5.2c0.4-0.4 0.8-0.667 1.333-0.933 2-0.8 4.4 0.133 5.2 2.133s-0.133 4.4-2.133 5.2l2.133 3.733c0.267 0.4 0.267 0.933 0.267 1.333-0.267 1.067-1.2 1.6-2.267 1.467 0 0-2.133-0.4-3.6-0.8h-0.667c-2.267 0-4 1.733-4 4"></path>
<path fill="none" stroke="#5d5d5d" style="stroke: var(--color2, #5d5d5d)" stroke-linejoin="round" stroke-linecap="round" stroke-miterlimit="4" stroke-width="2.6667" d="M17.657 24c0.512-0.573 0.849-1.28 0.969-2.039s0.020-1.536-0.289-2.239-0.815-1.302-1.455-1.726c-0.641-0.424-1.39-0.654-2.158-0.663"></path>
<path fill="none" stroke="#5d5d5d" style="stroke: var(--color2, #5d5d5d)" stroke-linejoin="round" stroke-linecap="round" stroke-miterlimit="4" stroke-width="2.6667" d="M17.391 29.333h-12c-0.707 0-1.386-0.281-1.886-0.781s-0.781-1.178-0.781-1.886c0-0.707 0.281-1.385 0.781-1.886s1.178-0.781 1.886-0.781h16"></path>
<path fill="none" stroke="#5d5d5d" style="stroke: var(--color2, #5d5d5d)" stroke-linejoin="round" stroke-linecap="round" stroke-miterlimit="4" stroke-width="2.6667" d="M21.391 12h0.013"></path>
</symbol>
<symbol id="birds" viewBox="0 0 32 32">
<path fill="none" stroke="#5d5d5d" style="stroke: var(--color2, #5d5d5d)" stroke-linejoin="round" stroke-linecap="round" stroke-miterlimit="4" stroke-width="2.6667" d="M21.333 9.34h0.013"></path>
<path fill="none" stroke="#5d5d5d" style="stroke: var(--color2, #5d5d5d)" stroke-linejoin="round" stroke-linecap="round" stroke-miterlimit="4" stroke-width="2.6667" d="M4.533 24.007h11.467c2.829 0 5.542-1.124 7.543-3.124s3.124-4.714 3.124-7.543v-4c0.003-1.136-0.357-2.244-1.027-3.161s-1.616-1.597-2.699-1.939c-1.083-0.342-2.248-0.33-3.323 0.036s-2.006 1.065-2.657 1.997l-14.293 20.4"></path>
<path fill="none" stroke="#5d5d5d" style="stroke: var(--color2, #5d5d5d)" stroke-linejoin="round" stroke-linecap="round" stroke-miterlimit="4" stroke-width="2.6667" d="M26.667 9.34l2.667 0.667-2.667 0.667"></path>
<path fill="none" stroke="#5d5d5d" style="stroke: var(--color2, #5d5d5d)" stroke-linejoin="round" stroke-linecap="round" stroke-miterlimit="4" stroke-width="2.6667" d="M13.333 24.007v4"></path>
<path fill="none" stroke="#5d5d5d" style="stroke: var(--color2, #5d5d5d)" stroke-linejoin="round" stroke-linecap="round" stroke-miterlimit="4" stroke-width="2.6667" d="M18.667 23.674v4.333"></path>
<path fill="none" stroke="#5d5d5d" style="stroke: var(--color2, #5d5d5d)" stroke-linejoin="round" stroke-linecap="round" stroke-miterlimit="4" stroke-width="2.6667" d="M9.333 24.007c1.644 0 3.248-0.507 4.594-1.451s2.368-2.28 2.928-3.826c0.559-1.546 0.629-3.227 0.199-4.814s-1.338-3.003-2.601-4.055"></path>
</symbol>
<symbol id="reptiles" viewBox="0 0 32 32">
<path fill="none" stroke="#5d5d5d" style="stroke: var(--color2, #5d5d5d)" stroke-linejoin="round" stroke-linecap="round" stroke-miterlimit="4" stroke-width="2.6667" d="M16 13.333l2.667 5.333v4c0 0.354 0.141 0.693 0.391 0.943s0.589 0.391 0.943 0.391h2.667c0.354 0 0.693-0.141 0.943-0.391s0.391-0.589 0.391-0.943v-4c0-2.829-1.124-5.542-3.124-7.542s-4.714-3.124-7.543-3.124c-2.829 0-5.542 1.124-7.542 3.124s-3.124 4.714-3.124 7.542v4c0 0.354 0.14 0.693 0.391 0.943s0.589 0.391 0.943 0.391h2.667c0.354 0 0.693-0.141 0.943-0.391s0.391-0.589 0.391-0.943v-4l2.667-5.333h5.333z"></path>
<path fill="none" stroke="#5d5d5d" style="stroke: var(--color2, #5d5d5d)" stroke-linejoin="round" stroke-linecap="round" stroke-miterlimit="4" stroke-width="2.6667" d="M6.427 10.533l4.24 2.8"></path>
<path fill="none" stroke="#5d5d5d" style="stroke: var(--color2, #5d5d5d)" stroke-linejoin="round" stroke-linecap="round" stroke-miterlimit="4" stroke-width="2.6667" d="M20.24 10.533l-4.24 2.8"></path>
<path fill="none" stroke="#5d5d5d" style="stroke: var(--color2, #5d5d5d)" stroke-linejoin="round" stroke-linecap="round" stroke-miterlimit="4" stroke-width="2.6667" d="M22.573 13.333h4.093c0.707 0 1.385 0.281 1.886 0.781s0.781 1.178 0.781 1.886c0 0.707-0.281 1.385-0.781 1.886s-1.178 0.781-1.886 0.781h-24"></path>
</symbol>
<symbol id="fish" viewBox="0 0 32 32">
<path fill="none" stroke="#5d5d5d" style="stroke: var(--color2, #5d5d5d)" stroke-linejoin="round" stroke-linecap="round" stroke-miterlimit="4" stroke-width="2.6667" d="M8.667 16c1.253-4.613 6.587-8 11.333-8s8.080 3.387 9.333 8c-1.253 4.627-4.587 8-9.333 8s-10.080-3.373-11.333-8z"></path>
<path fill="none" stroke="#5d5d5d" style="stroke: var(--color2, #5d5d5d)" stroke-linejoin="round" stroke-linecap="round" stroke-miterlimit="4" stroke-width="2.6667" d="M24.001 16v0.667"></path>
<path fill="none" stroke="#5d5d5d" style="stroke: var(--color2, #5d5d5d)" stroke-linejoin="round" stroke-linecap="round" stroke-miterlimit="4" stroke-width="2.6667" d="M21.334 23.907c-1.734-2.271-2.674-5.049-2.674-7.907s0.94-5.636 2.674-7.907"></path>
<path fill="none" stroke="#5d5d5d" style="stroke: var(--color2, #5d5d5d)" stroke-linejoin="round" stroke-linecap="round" stroke-miterlimit="4" stroke-width="2.6667" d="M9.334 14.227c0-3.56-1.893-6.267-5.693-6.893-1.333 2-1.333 6.667 0.307 8.667-1.653 2-1.653 6.667-0.307 8.667 3.8-0.627 5.693-3.333 5.693-6.893"></path>
<path fill="none" stroke="#5d5d5d" style="stroke: var(--color2, #5d5d5d)" stroke-linejoin="round" stroke-linecap="round" stroke-miterlimit="4" stroke-width="2.6667" d="M13.947 9.68c-0.347-1.84-1.72-4.027-3.28-5.68h7.733c0.633-0.002 1.245 0.22 1.729 0.628s0.806 0.974 0.911 1.598l0.307 1.867"></path>
<path fill="none" stroke="#5d5d5d" style="stroke: var(--color2, #5d5d5d)" stroke-linejoin="round" stroke-linecap="round" stroke-miterlimit="4" stroke-width="2.6667" d="M21.347 23.907l-0.307 1.867c-0.104 0.624-0.427 1.191-0.911 1.599s-1.097 0.631-1.729 0.628h-5.733c1.292-1.465 1.999-3.354 1.987-5.307"></path>
</symbol>
<symbol id="heart" viewBox="0 0 33 32">
<path fill="none" stroke-linejoin="round" stroke-linecap="round" stroke-miterlimit="4" stroke-width="2.6667" d="M26.4 18.667c1.987-1.947 4-4.28 4-7.333 0-1.945-0.773-3.81-2.148-5.185s-3.241-2.148-5.185-2.148c-2.347 0-4 0.667-6 2.667-2-2-3.653-2.667-6-2.667-1.945 0-3.81 0.773-5.185 2.148s-2.148 3.241-2.148 5.185c0 3.067 2 5.4 4 7.333l9.333 9.333 9.333-9.333z"></path>
</symbol>
<symbol id="icon-left" viewBox="0 0 32 32">
<path fill="none" stroke-linejoin="round" stroke-linecap="round" stroke-miterlimit="4" stroke-width="2.6667" d="M20 24l-8-8 8-8"></path>
</symbol>
<symbol id="icon-right" viewBox="0 0 32 32">
<path fill="none" stroke-linejoin="round" stroke-linecap="round" stroke-miterlimit="4" stroke-width="2.6667" d="M12 24l8-8-8-8"></path>
</symbol>
<symbol id="person" viewBox="0 0 32 32">
<path fill="none" stroke-linejoin="round" stroke-linecap="round" stroke-miterlimit="4" stroke-width="2.6667" d="M25.333 28v-2.667c0-1.415-0.562-2.771-1.562-3.771s-2.357-1.562-3.771-1.562h-8c-1.415 0-2.771 0.562-3.771 1.562s-1.562 2.357-1.562 3.771v2.667"></path>
<path fill="none" stroke-linejoin="round" stroke-linecap="round" stroke-miterlimit="4" stroke-width="2.6667" d="M16 14.667c2.945 0 5.333-2.388 5.333-5.333s-2.388-5.333-5.333-5.333c-2.946 0-5.333 2.388-5.333 5.333s2.388 5.333 5.333 5.333z"></path>
</symbol>
<symbol id="cart" viewBox="0 0 32 32">
<path fill="none" stroke-linejoin="round" stroke-linecap="round" stroke-miterlimit="4" stroke-width="2.6667" d="M10.573 29.3c0.736 0 1.333-0.597 1.333-1.333s-0.597-1.333-1.333-1.333c-0.736 0-1.333 0.597-1.333 1.333s0.597 1.333 1.333 1.333z"></path>
<path fill="none" stroke-linejoin="round" stroke-linecap="round" stroke-miterlimit="4" stroke-width="2.6667" d="M25.24 29.3c0.736 0 1.333-0.597 1.333-1.333s-0.597-1.333-1.333-1.333c-0.736 0-1.333 0.597-1.333 1.333s0.597 1.333 1.333 1.333z"></path>
<path fill="none" stroke-linejoin="round" stroke-linecap="round" stroke-miterlimit="4" stroke-width="2.6667" d="M2.64 2.7h2.667l3.547 16.56c0.13 0.607 0.468 1.149 0.954 1.533s1.092 0.587 1.712 0.573h13.040c0.607-0.001 1.195-0.209 1.668-0.589s0.801-0.911 0.932-1.504l2.2-9.907h-22.627"></path>
</symbol>
<symbol id="loop" viewBox="0 0 32 32">
<path fill="none" stroke="#888" style="stroke: var(--color2, #888)" stroke-linejoin="round" stroke-linecap="round" stroke-miterlimit="4" stroke-width="2.6667" d="M14.667 25.333c5.891 0 10.667-4.776 10.667-10.667s-4.776-10.667-10.667-10.667c-5.891 0-10.667 4.776-10.667 10.667s4.776 10.667 10.667 10.667z"></path>
<path fill="none" stroke="#888" style="stroke: var(--color2, #888)" stroke-linejoin="round" stroke-linecap="round" stroke-miterlimit="4" stroke-width="2.6667" d="M28 28l-5.733-5.733"></path>
</symbol>
<symbol id="lines" viewBox="0 0 32 32">
<path fill="none" stroke="#5d5d5d" style="stroke: var(--color1, #5d5d5d)" stroke-linejoin="round" stroke-linecap="round" stroke-miterlimit="4" stroke-width="2.6667" d="M5.333 16h21.333"></path>
<path fill="none" stroke="#5d5d5d" style="stroke: var(--color1, #5d5d5d)" stroke-linejoin="round" stroke-linecap="round" stroke-miterlimit="4" stroke-width="2.6667" d="M5.333 8h21.333"></path>
<path fill="none" stroke="#5d5d5d" style="stroke: var(--color1, #5d5d5d)" stroke-linejoin="round" stroke-linecap="round" stroke-miterlimit="4" stroke-width="2.6667" d="M5.333 24h21.333"></path>
</symbol>
<symbol id="icon-down" viewBox="0 0 31 32">
<path fill="none" stroke-linejoin="round" stroke-linecap="round" stroke-miterlimit="4" stroke-width="2.56" d="M7.68 12.16l7.68 7.68 7.68-7.68"></path>
</symbol>
<symbol id="house" viewBox="0 0 32 32">
<path fill="none" stroke="#888" style="stroke: var(--color1, #888)" stroke-linejoin="round" stroke-linecap="round" stroke-miterlimit="4" stroke-width="2.6667" d="M4 12l12-9.333 12 9.333v14.667c0 0.707-0.281 1.385-0.781 1.886s-1.178 0.781-1.886 0.781h-18.667c-0.707 0-1.386-0.281-1.886-0.781s-0.781-1.178-0.781-1.886v-14.667z"></path>
<path fill="none" stroke="#888" style="stroke: var(--color1, #888)" stroke-linejoin="round" stroke-linecap="round" stroke-miterlimit="4" stroke-width="2.6667" d="M12 29.333v-13.333h8v13.333"></path>
</symbol>
<symbol id="eye" viewBox="0 0 32 32">
<path fill="none" stroke="#888" style="stroke: var(--color1, #888)" stroke-linejoin="round" stroke-linecap="round" stroke-miterlimit="4" stroke-width="2.6667" d="M13.173 13.173c-0.393 0.366-0.708 0.808-0.927 1.298s-0.336 1.020-0.346 1.557c-0.009 0.537 0.089 1.071 0.29 1.569s0.501 0.951 0.88 1.33c0.38 0.38 0.832 0.679 1.33 0.881s1.032 0.3 1.569 0.29c0.537-0.009 1.067-0.127 1.557-0.346s0.932-0.534 1.298-0.927"></path>
<path fill="none" stroke="#888" style="stroke: var(--color1, #888)" stroke-linejoin="round" stroke-linecap="round" stroke-miterlimit="4" stroke-width="2.6667" d="M14.307 6.773c0.562-0.070 1.127-0.106 1.693-0.107 9.333 0 13.333 9.333 13.333 9.333-0.596 1.276-1.344 2.476-2.227 3.573"></path>
<path fill="none" stroke="#888" style="stroke: var(--color1, #888)" stroke-linejoin="round" stroke-linecap="round" stroke-miterlimit="4" stroke-width="2.6667" d="M8.813 8.813c-2.652 1.806-4.774 4.287-6.147 7.187 0 0 4 9.333 13.333 9.333 2.555 0.007 5.054-0.74 7.187-2.147"></path>
<path fill="none" stroke="#888" style="stroke: var(--color1, #888)" stroke-linejoin="round" stroke-linecap="round" stroke-miterlimit="4" stroke-width="2.6667" d="M2.667 2.667l26.667 26.667"></path>
</symbol>
<symbol id="empty-cart" viewBox="0 0 32 32">
<path fill="none" stroke="#888" style="stroke: var(--color1, #888)" stroke-linejoin="round" stroke-linecap="round" stroke-miterlimit="4" stroke-width="2.6667" d="M8 2.667l-4 5.333v18.667c0 0.707 0.281 1.385 0.781 1.886s1.178 0.781 1.886 0.781h18.667c0.707 0 1.385-0.281 1.886-0.781s0.781-1.178 0.781-1.886v-18.667l-4-5.333h-16z"></path>
<path fill="none" stroke="#888" style="stroke: var(--color1, #888)" stroke-linejoin="round" stroke-linecap="round" stroke-miterlimit="4" stroke-width="2.6667" d="M4 8h24"></path>
<path fill="none" stroke="#888" style="stroke: var(--color1, #888)" stroke-linejoin="round" stroke-linecap="round" stroke-miterlimit="4" stroke-width="2.6667" d="M21.333 13.333c0 1.415-0.562 2.771-1.562 3.771s-2.357 1.562-3.771 1.562-2.771-0.562-3.771-1.562c-1-1-1.562-2.357-1.562-3.771"></path>
</symbol>
<symbol id="car-icon" viewBox="0 0 32 32">
<path fill="none" stroke-linejoin="round" stroke-linecap="round" stroke-miterlimit="4" stroke-width="2.6667" d="M18.667 24v-16c0-0.707-0.281-1.386-0.781-1.886s-1.178-0.781-1.886-0.781h-10.667c-0.707 0-1.386 0.281-1.886 0.781s-0.781 1.178-0.781 1.886v14.667c0 0.354 0.14 0.693 0.391 0.943s0.589 0.391 0.943 0.391h2.667"></path>
<path fill="none" stroke-linejoin="round" stroke-linecap="round" stroke-miterlimit="4" stroke-width="2.6667" d="M20 24h-8"></path>
<path fill="none" stroke-linejoin="round" stroke-linecap="round" stroke-miterlimit="4" stroke-width="2.6667" d="M25.333 24h2.667c0.354 0 0.693-0.141 0.943-0.391s0.391-0.589 0.391-0.943v-4.867c-0.001-0.303-0.104-0.596-0.293-0.832l-4.64-5.8c-0.125-0.156-0.283-0.282-0.463-0.369s-0.377-0.132-0.577-0.132h-4.693"></path>
<path fill="none" stroke-linejoin="round" stroke-linecap="round" stroke-miterlimit="4" stroke-width="2.6667" d="M22.667 26.667c1.473 0 2.667-1.194 2.667-2.667s-1.194-2.667-2.667-2.667c-1.473 0-2.667 1.194-2.667 2.667s1.194 2.667 2.667 2.667z"></path>
<path fill="none" stroke-linejoin="round" stroke-linecap="round" stroke-miterlimit="4" stroke-width="2.6667" d="M9.333 26.667c1.473 0 2.667-1.194 2.667-2.667s-1.194-2.667-2.667-2.667c-1.473 0-2.667 1.194-2.667 2.667s1.194 2.667 2.667 2.667z"></path>
</symbol>
<symbol id="exit" viewBox="0 0 32 32">
<path fill="none" stroke-linejoin="round" stroke-linecap="round" stroke-miterlimit="4" stroke-width="2.6667" d="M12 28h-5.333c-0.707 0-1.386-0.281-1.886-0.781s-0.781-1.178-0.781-1.886v-18.667c0-0.707 0.281-1.386 0.781-1.886s1.178-0.781 1.886-0.781h5.333"></path>
<path fill="none" stroke-linejoin="round" stroke-linecap="round" stroke-miterlimit="4" stroke-width="2.6667" d="M21.333 22.667l6.667-6.667-6.667-6.667"></path>
<path fill="none" stroke-linejoin="round" stroke-linecap="round" stroke-miterlimit="4" stroke-width="2.6667" d="M28 16h-16"></path>
</symbol>
<symbol id="extra-menu" viewBox="0 0 32 32">
<path fill="none" stroke="#888" style="stroke: var(--color1, #888)" stroke-linejoin="round" stroke-linecap="round" stroke-miterlimit="4" stroke-width="2.6667" d="M16 17.333c0.736 0 1.333-0.597 1.333-1.333s-0.597-1.333-1.333-1.333v0c-0.736 0-1.333 0.597-1.333 1.333s0.597 1.333 1.333 1.333v0zM16 8c0.736 0 1.333-0.597 1.333-1.333s-0.597-1.333-1.333-1.333v0c-0.736 0-1.333 0.597-1.333 1.333s0.597 1.333 1.333 1.333v0zM16 26.667c0.736 0 1.333-0.597 1.333-1.333s-0.597-1.333-1.333-1.333v0c-0.736 0-1.333 0.597-1.333 1.333s0.597 1.333 1.333 1.333v0z"></path>
</symbol>
<symbol id="instagram" viewBox="0 0 32 32">
<path d="M31.909 9.403c-0.077-1.704-0.352-2.869-0.743-3.888-0.423-1.108-1.050-2.053-1.843-2.829l-0.001-0.001c-0.778-0.793-1.722-1.42-2.776-1.827l-0.054-0.018c-1.017-0.397-2.183-0.667-3.885-0.743-1.709-0.077-2.253-0.096-6.593-0.096-4.347 0-4.891 0.019-6.593 0.096-1.701 0.077-2.867 0.352-3.885 0.744-1.111 0.421-2.057 1.050-2.835 1.844l-0.001 0.001c-0.792 0.779-1.418 1.722-1.824 2.776l-0.018 0.054c-0.391 1.019-0.667 2.184-0.743 3.888-0.077 1.711-0.096 2.255-0.096 6.597 0 4.349 0.019 4.893 0.096 6.597 0.076 1.704 0.352 2.869 0.743 3.888 0.423 1.108 1.049 2.053 1.841 2.829l0.001 0.001c0.776 0.796 1.721 1.425 2.776 1.828l0.053 0.018c1.019 0.397 2.183 0.667 3.885 0.743 1.709 0.077 2.253 0.096 6.595 0.096 4.347 0 4.889-0.019 6.592-0.096s2.868-0.352 3.887-0.743c1.108-0.423 2.052-1.051 2.828-1.844l0.001-0.001c0.792-0.779 1.418-1.723 1.824-2.777l0.018-0.054c0.397-1.019 0.667-2.184 0.743-3.888 0.077-1.711 0.096-2.255 0.096-6.597s-0.013-4.893-0.089-6.597zM29.035 22.469c-0.069 1.563-0.333 2.413-0.551 2.972-0.287 0.743-0.64 1.28-1.203 1.844-0.507 0.518-1.122 0.928-1.809 1.194l-0.035 0.012c-0.563 0.217-1.413 0.48-2.969 0.551-1.684 0.076-2.189 0.096-6.467 0.096-4.275 0-4.781-0.020-6.464-0.096-1.563-0.071-2.413-0.333-2.971-0.551-0.723-0.273-1.339-0.684-1.843-1.204l-0.001-0.001c-0.517-0.507-0.926-1.122-1.191-1.809l-0.012-0.035c-0.217-0.564-0.48-1.416-0.551-2.973-0.077-1.683-0.096-2.189-0.096-6.468s0.019-4.784 0.096-6.469c0.071-1.563 0.333-2.413 0.551-2.972 0.288-0.743 0.64-1.28 1.203-1.844 0.507-0.518 1.122-0.927 1.809-1.192l0.035-0.012c0.564-0.219 1.415-0.48 2.971-0.552 1.683-0.076 2.189-0.096 6.465-0.096s4.781 0.020 6.465 0.096c1.561 0.071 2.413 0.333 2.969 0.552 0.743 0.288 1.28 0.64 1.844 1.204 0.563 0.563 0.903 1.095 1.203 1.844 0.219 0.564 0.48 1.416 0.551 2.973 0.077 1.684 0.096 2.189 0.096 6.468s-0.025 4.784-0.096 6.469z"></path>
<path d="M16.003 7.776c-4.539 0-8.219 3.68-8.219 8.219 0 0.002 0 0.004 0 0.006v-0c0 4.539 3.68 8.219 8.219 8.219s8.219-3.68 8.219-8.219v0c0-0.003 0-0.006 0-0.009 0-4.537-3.678-8.215-8.215-8.215-0.002 0-0.004 0-0.006 0h0zM16.003 21.336c-2.945-0.001-5.332-2.388-5.332-5.333 0-0.001 0-0.002 0-0.003v0c0-0.001 0-0.002 0-0.003 0-2.946 2.388-5.333 5.333-5.333 0 0 0 0 0 0v0c2.944 0.002 5.329 2.389 5.329 5.333 0 0.001 0 0.002 0 0.003v-0c0 0.001 0 0.002 0 0.003 0 2.945-2.387 5.333-5.332 5.333h-0zM24.543 9.377c1.061 0 1.921-0.86 1.921-1.921s-0.86-1.921-1.921-1.921v0c-1.061 0-1.921 0.86-1.921 1.921s0.86 1.921 1.921 1.921v0z"></path>
<path d="M0 16c0 4.349 0.019 4.893 0.096 6.597s0.352 2.869 0.743 3.888c0.423 1.108 1.050 2.053 1.843 2.829l0.001 0.001c0.777 0.794 1.722 1.422 2.776 1.827l0.053 0.018c1.017 0.397 2.183 0.667 3.885 0.743 1.709 0.077 2.253 0.096 6.593 0.096 4.347 0 4.891-0.019 6.593-0.096s2.867-0.352 3.885-0.743c1.108-0.423 2.052-1.051 2.828-1.844l0.001-0.001c0.794-0.778 1.421-1.723 1.826-2.777l0.018-0.053c0.396-1.019 0.665-2.184 0.743-3.888 0.076-1.711 0.096-2.255 0.096-6.597 0-4.349-0.020-4.893-0.096-6.597-0.077-1.704-0.353-2.869-0.743-3.888-0.423-1.108-1.050-2.053-1.843-2.829l-0.001-0.001c-0.773-0.798-1.716-1.426-2.77-1.828l-0.052-0.018c-1.019-0.397-2.183-0.667-3.885-0.743-1.711-0.077-2.253-0.096-6.593-0.096-4.347 0-4.891 0.019-6.593 0.096s-2.868 0.352-3.887 0.744c-1.108 0.423-2.052 1.051-2.828 1.844l-0.001 0.001c-0.792 0.779-1.418 1.722-1.824 2.776l-0.018 0.054c-0.397 1.019-0.672 2.184-0.749 3.888s-0.096 2.248-0.096 6.597zM2.887 16c0-4.272 0.020-4.784 0.096-6.469 0.071-1.563 0.333-2.413 0.551-2.972 0.288-0.743 0.64-1.28 1.204-1.844 0.506-0.518 1.121-0.927 1.808-1.192l0.035-0.012c0.564-0.219 1.415-0.48 2.971-0.552 1.684-0.076 2.189-0.096 6.465-0.096s4.781 0.020 6.465 0.096c1.561 0.071 2.413 0.333 2.971 0.552 0.741 0.288 1.28 0.64 1.843 1.204 0.564 0.563 0.903 1.095 1.204 1.844 0.217 0.564 0.48 1.416 0.551 2.973 0.076 1.684 0.096 2.189 0.096 6.468s-0.020 4.784-0.096 6.469c-0.071 1.563-0.333 2.413-0.551 2.972-0.273 0.723-0.683 1.339-1.203 1.843l-0.001 0.001c-0.506 0.518-1.121 0.928-1.808 1.194l-0.035 0.012c-0.564 0.217-1.415 0.48-2.971 0.551-1.684 0.076-2.189 0.096-6.465 0.096s-4.781-0.020-6.465-0.096c-1.561-0.071-2.413-0.333-2.971-0.551-0.723-0.274-1.338-0.684-1.841-1.204l-0.001-0.001c-0.518-0.507-0.927-1.122-1.192-1.809l-0.012-0.035c-0.217-0.564-0.48-1.416-0.551-2.973-0.083-1.683-0.096-2.196-0.096-6.468z"></path>
</symbol>
<symbol id="facebook" viewBox="0 0 32 32">
<path d="M32 16c0-8.836-7.164-16-16-16s-16 7.164-16 16c0 7.987 5.851 14.605 13.5 15.805v-11.179h-4.063v-4.627h4.063v-3.525c0-4.009 2.389-6.224 6.044-6.224 1.749 0 3.581 0.312 3.581 0.312v3.937h-2.019c-1.988 0-2.608 1.233-2.608 2.5v3h4.437l-0.709 4.625h-3.728v11.18c7.651-1.2 13.501-7.819 13.501-15.805z"></path>
</symbol>
<symbol id="tiktok" viewBox="0 0 32 32">
<path d="M22.764 0h-5.393v21.797c0 2.597-2.075 4.731-4.656 4.731s-4.655-2.133-4.655-4.731c0-2.551 2.027-4.637 4.517-4.731v-5.472c-5.485 0.093-9.911 4.591-9.911 10.203 0 5.656 4.517 10.203 10.093 10.203 5.579 0 10.096-4.592 10.096-10.203v-11.177c1.977 1.462 4.451 2.359 7.132 2.412l0.012 0v-5.472c-4.056-0.14-7.236-3.48-7.236-7.56z"></path>
</symbol>
<symbol id="visa" viewBox="0 0 32 32">
<path fill="none" stroke="#fff" style="stroke: var(--color1, #fff)" stroke-linejoin="miter" stroke-linecap="butt" stroke-miterlimit="4" stroke-width="1.5" d="M16.494 19.472c0.585 0.214 1.261 0.337 1.965 0.337 0.056 0 0.112-0.001 0.167-0.002l-0.008 0-2.124-0.335zM16.494 19.472l-0.141 0.657c0.53 0.144 1.25 0.26 2.007 0.268 1.242 0 2.19-0.309 2.81-0.778 0.602-0.456 0.936-1.093 0.939-1.895 0.004-0.875-0.558-1.378-1.435-1.872-0.168-0.095-0.334-0.182-0.504-0.272l-0.145-0.076c-0.261-0.134-0.47-0.255-0.674-0.385l0.034 0.020c-0.346-0.226-0.913-0.658-0.898-1.39v-0.001c0.020-0.893 0.827-1.444 1.749-1.564h0.001c0.363-0.047 1.146-0.080 2.094 0.189l0.13-0.609c-0.461-0.128-0.991-0.201-1.538-0.201-0.002 0-0.003 0-0.005 0h0c-1.152 0-2.072 0.306-2.686 0.77-0.601 0.454-0.928 1.069-0.933 1.789v0.003c-0.005 0.463 0.192 0.838 0.535 1.178 0.357 0.353 0.838 0.63 1.306 0.86 0.512 0.248 0.935 0.489 1.232 0.764 0.335 0.31 0.536 0.69 0.53 1.16l-4.408 1.385zM7.44 18.074l2.502-6.329h1.079l-3.561 8.495h-0.877l0.857-2.166zM6.44 20.24h-0.632l-1.916-7.413c-0.066-0.258-0.15-0.535-0.32-0.782-0.078-0.114-0.166-0.212-0.264-0.298l-0.002-0.002h1.154c0.203 0 0.398 0.12 0.457 0.412l1.088 5.78 0.434 2.303zM26.018 17.193l-0.365 1.006h4.137l-0.189-0.903-1.158-5.551h0.859l1.775 8.495h-0.859l-0.188-0.897-0.125-0.596h-4.453l-0.179 0.496-0.36 0.997h-1.061l3.444-8.223c0.064-0.161 0.218-0.272 0.398-0.272 0.004 0 0.008 0 0.013 0h0.286l-0.614 1.695-1.361 3.753zM14.917 11.745l-1.817 8.495h-1.052l1.817-8.495h1.052z"></path>
</symbol>
<symbol id="mastercard" viewBox="0 0 32 32">
<path fill="#fff" style="fill: var(--color1, #fff)" d="M16 21.226c-1.665 1.318-3.796 2.115-6.112 2.115-5.462 0-9.89-4.428-9.89-9.89s4.428-9.89 9.89-9.89c2.317 0 4.447 0.797 6.133 2.131l-0.021-0.016c1.665-1.318 3.795-2.114 6.111-2.114 5.462 0 9.889 4.427 9.889 9.889s-4.427 9.889-9.889 9.889c-2.316 0-4.446-0.796-6.131-2.13l0.021 0.016zM12.223 13.452v-0.001c0 0.004 0 0.007 0 0.011 0 3.142 1.468 5.941 3.777 7.765l0.021-0.016c2.289-1.811 3.757-4.614 3.757-7.759s-1.468-5.948-3.778-7.775l-0.021 0.016c-2.288 1.808-3.756 4.607-3.756 7.749 0 0.003 0 0.007 0 0.010zM17.618 21.122c1.286 0.766 2.837 1.219 4.493 1.219 4.909 0 8.889-3.98 8.889-8.889s-3.98-8.889-8.889-8.889c-1.656 0-3.206 0.453-4.534 1.242l0.041-0.023c1.952 1.968 3.159 4.678 3.159 7.67s-1.206 5.702-3.159 7.671l0.001-0.001z"></path>
<path fill="#fff" style="fill: var(--color1, #fff)" d="M31.057 19.26v0.32h-0.070v-0.32h-0.129v-0.064h0.327v0.065h-0.128zM31.691 19.195v0.384h-0.070v-0.29l-0.108 0.25h-0.074l-0.108-0.25v0.29h-0.070v-0.384h0.1l0.115 0.264 0.115-0.264h0.1zM5.821 26.665v1.648h-0.577v-1.461c0-0.445-0.186-0.693-0.576-0.693-0.008-0-0.018-0.001-0.028-0.001-0.342 0-0.62 0.278-0.62 0.62 0 0.028 0.002 0.055 0.005 0.082l-0-0.003v1.456h-0.577v-1.461c0-0.445-0.192-0.693-0.571-0.693-0.010-0.001-0.022-0.001-0.034-0.001-0.34 0-0.615 0.275-0.615 0.615 0 0.030 0.002 0.059 0.006 0.087l-0-0.003v1.456h-0.577v-2.626h0.572v0.324c0.158-0.237 0.424-0.391 0.726-0.391 0.015 0 0.030 0 0.045 0.001l-0.002-0c0.012-0.001 0.027-0.001 0.041-0.001 0.349 0 0.655 0.186 0.825 0.464l0.002 0.004c0.184-0.284 0.499-0.469 0.857-0.469 0.023 0 0.046 0.001 0.069 0.002l-0.003-0c0.017-0.001 0.037-0.002 0.057-0.002 0.54 0 0.977 0.437 0.977 0.977 0 0.024-0.001 0.048-0.003 0.072l0-0.003zM13.424 25.687h0.934v0.522h-0.934v1.186c0 0.264 0.093 0.44 0.379 0.44 0.178-0.006 0.352-0.057 0.505-0.149l0.165 0.49c-0.201 0.127-0.447 0.203-0.709 0.203-0.002 0-0.003 0-0.005 0h0c-0.676 0-0.912-0.363-0.912-0.973v-1.196h-0.533v-0.522h0.533v-0.797h0.577v0.797zM18.831 25.718c0.108-0.061 0.238-0.097 0.376-0.097 0.008 0 0.017 0 0.025 0l-0.001-0c0.138 0 0.275 0.025 0.406 0.071l-0.176 0.539c-0.102-0.042-0.221-0.066-0.345-0.066-0.004 0-0.009 0-0.013 0h0.001c-0.374 0-0.56 0.242-0.56 0.675v1.473h-0.572v-2.626h0.566v0.319c0.070-0.12 0.171-0.22 0.293-0.288zM10.793 25.621c0.376-0.013 0.747 0.082 1.070 0.275l-0.246 0.461c-0.235-0.138-0.517-0.221-0.818-0.225h-0.001c-0.313 0-0.5 0.115-0.5 0.307 0 0.176 0.198 0.226 0.445 0.259l0.27 0.038c0.57 0.082 0.917 0.324 0.917 0.786 0 0.5-0.44 0.857-1.198 0.857-0.015 0-0.034 0.001-0.052 0.001-0.406 0-0.783-0.128-1.091-0.346l0.006 0.004 0.27-0.445c0.251 0.187 0.559 0.284 0.873 0.275 0.39 0 0.598-0.116 0.598-0.319 0-0.148-0.148-0.23-0.461-0.275l-0.27-0.038c-0.587-0.082-0.906-0.346-0.906-0.774 0-0.522 0.429-0.841 1.094-0.841zM26.769 25.718c0.108-0.061 0.238-0.097 0.376-0.097 0.008 0 0.016 0 0.024 0l-0.001-0c0.138 0 0.276 0.025 0.406 0.071l-0.176 0.539c-0.102-0.042-0.221-0.066-0.345-0.066-0.004 0-0.009 0-0.013 0h0.001c-0.373 0-0.56 0.242-0.56 0.675v1.473h-0.571v-2.626h0.566v0.319c0.070-0.12 0.17-0.22 0.293-0.288zM19.898 27.541c-0.058-0.144-0.092-0.311-0.092-0.486 0-0.019 0-0.039 0.001-0.058l-0 0.003c-0.001-0.016-0.001-0.036-0.001-0.055 0-0.732 0.594-1.326 1.326-1.326 0.026 0 0.053 0.001 0.079 0.002l-0.004-0c0.344-0.017 0.68 0.095 0.945 0.313l-0.274 0.462c-0.189-0.145-0.427-0.234-0.686-0.237h-0.001c-0.443 0.027-0.792 0.393-0.792 0.84s0.349 0.813 0.789 0.84l0.002 0c0.248-0.003 0.49-0.085 0.687-0.236l0.274 0.462c-0.264 0.218-0.601 0.33-0.944 0.313-0.023 0.001-0.049 0.002-0.076 0.002-0.557 0-1.035-0.344-1.231-0.831l-0.003-0.009z"></path>
<path fill="#fff" style="fill: var(--color1, #fff)" d="M25.157 25.687v2.626h-0.571v-0.319c-0.184 0.236-0.468 0.386-0.787 0.386-0.015 0-0.030-0-0.045-0.001l0.002 0c-0.739-0.029-1.327-0.635-1.327-1.379s0.588-1.35 1.325-1.379l0.003-0c0.013-0.001 0.028-0.001 0.043-0.001 0.319 0 0.603 0.15 0.786 0.384l0.002 0.002v-0.32h0.571zM23.187 26.571c-0.099 0.131-0.158 0.296-0.158 0.476 0 0.098 0.018 0.191 0.050 0.278l-0.002-0.006c0.113 0.306 0.403 0.521 0.743 0.521 0.003 0 0.005 0 0.008-0h-0c0.438-0.001 0.793-0.357 0.793-0.795s-0.356-0.795-0.795-0.795c-0.261 0-0.492 0.125-0.637 0.319l-0.001 0.002zM15.202 26.056c0.236-0.252 0.565-0.415 0.932-0.435l0.003-0c0.736 0 1.242 0.56 1.247 1.379 0 0.077-0.005 0.148-0.010 0.22h-1.95c0.044 0.365 0.352 0.644 0.725 0.644 0.021 0 0.042-0.001 0.063-0.003l-0.003 0c0.278-0.004 0.546-0.1 0.763-0.274l0.28 0.422c-0.3 0.251-0.684 0.382-1.076 0.369-0.748-0.019-1.347-0.629-1.347-1.38 0-0.365 0.142-0.697 0.373-0.944l-0.001 0.001zM16.59 26.313c-0.117-0.112-0.276-0.181-0.451-0.181-0.005 0-0.009 0-0.014 0h0.001c-0.007-0-0.014-0-0.022-0-0.36 0-0.654 0.281-0.675 0.636l-0 0.002h1.362c-0.004-0.179-0.080-0.34-0.2-0.456l-0-0zM30.458 24.632v3.68h-0.571v-0.318c-0.184 0.236-0.468 0.386-0.787 0.386-0.015 0-0.030-0-0.045-0.001l0.002 0c-0.739-0.029-1.327-0.635-1.327-1.379s0.588-1.35 1.325-1.379l0.003-0c0.013-0.001 0.028-0.001 0.043-0.001 0.319 0 0.603 0.15 0.786 0.384l0.002 0.002v-1.374h0.571zM28.488 26.572c-0.089 0.119-0.146 0.266-0.156 0.426l-0 0.002c-0.001 0.017-0.002 0.036-0.002 0.055 0 0.434 0.351 0.785 0.785 0.785 0.005 0 0.010-0 0.015-0h-0.001c0.439-0 0.795-0.357 0.795-0.796s-0.356-0.796-0.796-0.796c-0.262 0-0.494 0.126-0.639 0.321l-0.002 0.002zM31.498 28.092c-0.018-0.013-0.041-0.021-0.065-0.021-0.002 0-0.005 0-0.007 0l0-0h-0.112v0.242h0.052v-0.090h0.023l0.074 0.090h0.062l-0.080-0.091c0.022-0.001 0.043-0.010 0.058-0.024l-0 0c0.012-0.012 0.020-0.029 0.020-0.048 0-0.001 0-0.002-0-0.002v0c0-0.001 0-0.002 0-0.003 0-0.021-0.010-0.040-0.025-0.053l-0-0zM31.366 28.181v-0.065h0.060c0.001-0 0.001-0 0.002-0 0.011 0 0.021 0.003 0.030 0.008l-0-0c0.007 0.005 0.012 0.013 0.012 0.022 0 0.001 0 0.001-0 0.002v-0c0 0.005 0 0.010-0.003 0.014s-0.006 0.007-0.010 0.010l-0 0c-0.009 0.006-0.020 0.009-0.031 0.009-0 0-0.001 0-0.001 0h-0.060z"></path>
<path fill="#fff" style="fill: var(--color1, #fff)" d="M31.514 27.953c-0.031-0.013-0.067-0.021-0.104-0.021-0.074 0-0.14 0.029-0.189 0.077l0-0c-0.047 0.047-0.077 0.112-0.078 0.184v0c0 0 0 0 0 0.001 0 0.091 0.047 0.171 0.119 0.217l0.001 0.001c0.041 0.027 0.091 0.043 0.146 0.043 0.038 0 0.074-0.008 0.106-0.022l-0.002 0.001c0.063-0.027 0.113-0.076 0.141-0.137l0.001-0.002c0.013-0.030 0.021-0.064 0.021-0.101 0-0.072-0.030-0.137-0.078-0.184l-0-0c-0.024-0.023-0.051-0.042-0.082-0.055l-0.002-0.001zM31.489 28.381c-0.023 0.010-0.050 0.016-0.079 0.016-0.112 0-0.203-0.091-0.203-0.203s0.091-0.203 0.203-0.203v0c0.001-0 0.002-0 0.003-0 0.055 0 0.104 0.022 0.14 0.058v0c0.037 0.037 0.059 0.088 0.059 0.144 0 0.084-0.050 0.156-0.122 0.187l-0.001 0.001zM9.040 25.687v2.626h-0.57v-0.319c-0.184 0.236-0.468 0.386-0.787 0.386-0.015 0-0.030-0-0.045-0.001l0.002 0c-0.739-0.029-1.327-0.635-1.327-1.379s0.588-1.35 1.325-1.379l0.003-0c0.013-0.001 0.028-0.001 0.043-0.001 0.319 0 0.603 0.15 0.786 0.384l0.002 0.002v-0.32h0.571zM7.070 26.571c-0.089 0.119-0.146 0.266-0.156 0.427l-0 0.002c-0.001 0.016-0.002 0.034-0.002 0.053 0 0.435 0.352 0.787 0.787 0.787 0.004 0 0.008-0 0.012-0h-0.001c0.438-0.002 0.792-0.357 0.792-0.795s-0.356-0.795-0.795-0.795c-0.261 0-0.492 0.125-0.637 0.319l-0.001 0.002z"></path>
</symbol>
<symbol id="menu" viewBox="0 0 32 32">
<path stroke-linejoin="round" stroke-linecap="round" stroke-miterlimit="4" stroke-width="1.6" d="M9.6 16h12.8M9.6 11.2h12.8M9.6 20.8h12.8"></path>
</symbol>
<symbol id="cross" viewBox="0 0 32 32">
<path stroke-linejoin="round" stroke-linecap="round" stroke-miterlimit="4" stroke-width="2.6667" d="M24 8l-16 16M8 8l16 16"></path>
</symbol>
</defs>
</svg>
