<svg aria-hidden="true" style="position: absolute; width: 0; height: 0; overflow: hidden;" version="1.1" xmlns="http://www.w3.org/2000/svg" xmlns:xlink="http://www.w3.org/1999/xlink">
<defs>
<symbol id="logo" viewBox="0 0 150 32">
<path fill="#34955d" style="fill: var(--color1, #34955d); stroke: var(--color1, #34955d)" stroke="#34955d" stroke-linejoin="round" stroke-linecap="round" stroke-miterlimit="4" stroke-width="1.5" d="M26.5 16c1.381 0 2.5-1.119 2.5-2.5s-1.119-2.5-2.5-2.5c-1.381 0-2.5 1.119-2.5 2.5s1.119 2.5 2.5 2.5z"></path>
<path fill="#34955d" style="fill: var(--color1, #34955d); stroke: var(--color1, #34955d)" stroke="#34955d" stroke-linejoin="round" stroke-linecap="round" stroke-miterlimit="4" stroke-width="1.5" d="M5.5 16c1.381 0 2.5-1.119 2.5-2.5s-1.119-2.5-2.5-2.5c-1.381 0-2.5 1.119-2.5 2.5s1.119 2.5 2.5 2.5z"></path>
<path fill="#34955d" style="fill: var(--color1, #34955d); stroke: var(--color1, #34955d)" stroke="#34955d" stroke-linejoin="round" stroke-linecap="round" stroke-miterlimit="4" stroke-width="1.5" d="M11.5 10c1.381 0 2.5-1.119 2.5-2.5s-1.119-2.5-2.5-2.5c-1.381 0-2.5 1.119-2.5 2.5s1.119 2.5 2.5 2.5z"></path>
<path fill="#34955d" style="fill: var(--color1, #34955d); stroke: var(--color1, #34955d)" stroke="#34955d" stroke-linejoin="round" stroke-linecap="round" stroke-miterlimit="4" stroke-width="1.5" d="M20.5 10c1.381 0 2.5-1.119 2.5-2.5s-1.119-2.5-2.5-2.5c-1.381 0-2.5 1.119-2.5 2.5s1.119 2.5 2.5 2.5z"></path>
<path fill="#34955d" style="fill: var(--color1, #34955d); stroke: var(--color1, #34955d)" stroke="#34955d" stroke-linejoin="round" stroke-linecap="round" stroke-miterlimit="4" stroke-width="1.5" d="M16 13c-0.975 0-1.924 0.318-2.703 0.904s-1.347 1.41-1.618 2.346c-0.4 1.378-1.329 2.542-2.584 3.238-0.911 0.486-1.599 1.305-1.92 2.286s-0.25 2.048 0.197 2.978c0.448 0.93 1.238 1.651 2.205 2.012s2.036 0.335 2.984-0.074c2.203-0.903 4.672-0.903 6.875 0 0.948 0.409 2.017 0.436 2.984 0.074s1.757-1.082 2.205-2.012c0.448-0.93 0.518-1.997 0.197-2.978s-1.009-1.8-1.92-2.286c-1.254-0.696-2.182-1.86-2.581-3.238-0.271-0.937-0.839-1.76-1.618-2.346s-1.728-0.903-2.703-0.904z"></path>
<path fill="#34955d" style="fill: var(--color1, #34955d)" d="M142.97 25.742v-1.395c-0.109 0.128-0.264 0.287-0.464 0.479-0.192 0.182-0.616 0.428-1.272 0.738-0.656 0.301-1.34 0.451-2.051 0.451-1.367 0-2.479-0.378-3.336-1.135-0.856-0.766-1.285-1.691-1.285-2.775 0-1.121 0.36-2.055 1.080-2.803s1.714-1.235 2.981-1.463l4.347-0.779c0-0.574-0.209-1.044-0.628-1.408-0.42-0.364-1.003-0.547-1.75-0.547-0.62 0-1.185 0.118-1.696 0.355-0.51 0.228-0.87 0.465-1.080 0.711l-0.314 0.328-2.092-2.092c0.055-0.073 0.128-0.169 0.219-0.287 0.1-0.128 0.314-0.342 0.642-0.643 0.337-0.301 0.702-0.565 1.094-0.793 0.392-0.237 0.907-0.451 1.545-0.643 0.638-0.201 1.29-0.301 1.955-0.301 1.732 0 3.145 0.52 4.238 1.559 1.094 1.030 1.641 2.329 1.641 3.897v8.545h-3.774zM140.168 22.939c0.856 0 1.536-0.269 2.037-0.807 0.51-0.547 0.765-1.303 0.765-2.27v-0.424l-3.076 0.561c-1.030 0.164-1.545 0.679-1.545 1.545 0 0.93 0.606 1.395 1.819 1.395z"></path>
<path fill="#34955d" style="fill: var(--color1, #34955d)" d="M131.623 12.016v13.727h-3.787v-13.727h3.787zM131.295 6.574c0.401 0.383 0.601 0.893 0.601 1.531 0 0.629-0.2 1.135-0.601 1.518s-0.948 0.574-1.641 0.574c-0.638 0-1.148-0.191-1.531-0.574-0.374-0.383-0.561-0.889-0.561-1.518 0-0.638 0.192-1.148 0.574-1.531s0.889-0.574 1.518-0.574c0.693 0 1.24 0.191 1.641 0.574z"></path>
<path fill="#34955d" style="fill: var(--color1, #34955d)" d="M118.306 26.016c-0.783 0-1.517-0.16-2.201-0.479-0.674-0.328-1.153-0.652-1.435-0.971l-0.424-0.506v7.561h-3.774v-19.605h3.774v1.682c0.036-0.055 0.091-0.123 0.164-0.205 0.082-0.082 0.246-0.232 0.492-0.451 0.255-0.228 0.529-0.428 0.82-0.601 0.292-0.182 0.67-0.342 1.135-0.479 0.465-0.146 0.948-0.219 1.449-0.219 1.778 0 3.318 0.693 4.621 2.078 1.313 1.376 1.969 3.063 1.969 5.059s-0.656 3.687-1.969 5.072c-1.303 1.376-2.843 2.064-4.621 2.064zM119.988 16.172c-0.647-0.711-1.44-1.066-2.379-1.066-0.93 0-1.723 0.355-2.379 1.066-0.656 0.702-0.984 1.604-0.984 2.707s0.328 2.010 0.984 2.721c0.656 0.711 1.449 1.066 2.379 1.066 0.939 0 1.732-0.355 2.379-1.066 0.656-0.711 0.984-1.618 0.984-2.721s-0.328-2.005-0.984-2.707z"></path>
<path fill="#34955d" style="fill: var(--color1, #34955d)" d="M98.031 16.295c-0.665 0.702-0.998 1.568-0.998 2.598 0 1.021 0.333 1.882 0.998 2.584 0.665 0.693 1.454 1.039 2.365 1.039s1.7-0.346 2.365-1.039c0.666-0.702 0.999-1.563 0.999-2.584 0-1.030-0.333-1.896-0.999-2.598s-1.453-1.053-2.365-1.053c-0.911 0-1.7 0.351-2.365 1.053zM105.496 13.889c1.449 1.422 2.174 3.085 2.174 4.99s-0.725 3.573-2.174 5.004c-1.44 1.422-3.14 2.133-5.1 2.133s-3.664-0.711-5.113-2.133c-1.449-1.431-2.174-3.099-2.174-5.004s0.725-3.568 2.174-4.99c1.449-1.431 3.154-2.146 5.113-2.146s3.66 0.716 5.1 2.146z"></path>
<path fill="#34955d" style="fill: var(--color1, #34955d)" d="M84.865 10.484v-2.516h3.363v4.334h2.789v3.363h-2.789v5.455c0 0.428 0.155 0.793 0.465 1.094 0.319 0.301 0.72 0.451 1.203 0.451 0.246 0 0.483-0.023 0.711-0.068 0.237-0.055 0.415-0.109 0.533-0.164l0.164-0.055v3.227c-0.747 0.282-1.591 0.419-2.529 0.41-2.889 0-4.334-1.586-4.334-4.758v-5.592h-2.379v-3.363h1.258c0.428 0 0.793-0.169 1.094-0.506s0.451-0.775 0.451-1.313z"></path>
<path fill="#34955d" style="fill: var(--color1, #34955d)" d="M73.517 10.484v-2.516h3.363v4.334h2.789v3.363h-2.789v5.455c0 0.428 0.155 0.793 0.465 1.094 0.319 0.301 0.72 0.451 1.203 0.451 0.246 0 0.483-0.023 0.711-0.068 0.237-0.055 0.415-0.109 0.533-0.164l0.164-0.055v3.227c-0.747 0.282-1.591 0.419-2.529 0.41-2.889 0-4.334-1.586-4.334-4.758v-5.592h-2.379v-3.363h1.258c0.428 0 0.793-0.169 1.094-0.506s0.451-0.775 0.451-1.313z"></path>
<path fill="#34955d" style="fill: var(--color1, #34955d)" d="M68.883 20.137h-9.94c0.146 0.747 0.542 1.381 1.19 1.9 0.647 0.51 1.463 0.766 2.447 0.766 0.711 0 1.367-0.137 1.969-0.41 0.611-0.283 1.039-0.565 1.285-0.848l0.397-0.424 1.955 2.516-0.246 0.246c-0.118 0.119-0.365 0.314-0.738 0.588s-0.77 0.52-1.189 0.738c-0.419 0.21-0.966 0.396-1.641 0.561-0.665 0.164-1.354 0.246-2.065 0.246-2.014 0-3.732-0.697-5.154-2.092-1.422-1.404-2.133-3.085-2.133-5.045s0.702-3.637 2.105-5.031c1.404-1.404 3.085-2.106 5.045-2.106s3.591 0.656 4.894 1.969c1.303 1.303 1.955 2.935 1.955 4.895l-0.137 1.531zM64.193 15.68c-0.547-0.474-1.221-0.711-2.023-0.711s-1.486 0.232-2.051 0.697c-0.556 0.465-0.948 1.071-1.176 1.818h6.303c-0.146-0.729-0.497-1.331-1.053-1.805z"></path>
<path fill="#34955d" style="fill: var(--color1, #34955d)" d="M38.244 6.137h8.258c2.014 0 3.682 0.633 5.004 1.9 1.331 1.258 1.996 2.821 1.996 4.689 0 1.859-0.661 3.422-1.982 4.689-1.322 1.258-2.994 1.887-5.018 1.887h-4.047v6.439h-4.211v-19.605zM46.365 9.924h-3.91v5.592h3.91c0.839 0 1.536-0.269 2.092-0.807 0.565-0.538 0.848-1.199 0.848-1.982s-0.283-1.445-0.848-1.982c-0.556-0.547-1.253-0.82-2.092-0.82z"></path>
</symbol>
<symbol id="discount" viewBox="0 0 32 32">
<path fill="none" stroke="#5d5d5d" style="stroke: var(--color2, #5d5d5d)" stroke-linejoin="round" stroke-linecap="round" stroke-miterlimit="4" stroke-width="2.6667" d="M5.144 11.488c-0.195-0.877-0.165-1.788 0.087-2.65s0.717-1.647 1.352-2.281c0.636-0.634 1.421-1.098 2.284-1.348s1.774-0.278 2.65-0.081c0.482-0.754 1.147-1.375 1.932-1.805s1.666-0.655 2.561-0.655c0.895 0 1.776 0.225 2.561 0.655s1.45 1.051 1.932 1.805c0.877-0.197 1.791-0.169 2.655 0.081s1.65 0.715 2.286 1.351 1.101 1.423 1.351 2.286c0.251 0.864 0.278 1.777 0.081 2.655 0.754 0.482 1.375 1.147 1.805 1.932s0.655 1.666 0.655 2.561c0 0.895-0.225 1.776-0.655 2.561s-1.051 1.45-1.805 1.932c0.196 0.876 0.168 1.788-0.081 2.65s-0.713 1.648-1.348 2.284c-0.634 0.636-1.419 1.101-2.281 1.352s-1.774 0.281-2.65 0.087c-0.482 0.757-1.147 1.381-1.933 1.812s-1.669 0.658-2.567 0.658c-0.897 0-1.78-0.226-2.567-0.658s-1.451-1.055-1.933-1.812c-0.876 0.196-1.788 0.168-2.65-0.081s-1.648-0.713-2.284-1.348c-0.636-0.634-1.101-1.419-1.352-2.281s-0.282-1.773-0.087-2.65c-0.76-0.481-1.386-1.146-1.82-1.934s-0.661-1.673-0.661-2.572c0-0.899 0.227-1.784 0.661-2.572s1.060-1.453 1.82-1.934z"></path>
<path fill="none" stroke="#5d5d5d" style="stroke: var(--color2, #5d5d5d)" stroke-linejoin="round" stroke-linecap="round" stroke-miterlimit="4" stroke-width="2.6667" d="M20.011 11.995l-8 8"></path>
<path fill="none" stroke="#5d5d5d" style="stroke: var(--color2, #5d5d5d)" stroke-linejoin="round" stroke-linecap="round" stroke-miterlimit="4" stroke-width="2.6667" d="M12.011 11.995h0.013"></path>
<path fill="none" stroke="#5d5d5d" style="stroke: var(--color2, #5d5d5d)" stroke-linejoin="round" stroke-linecap="round" stroke-miterlimit="4" stroke-width="2.6667" d="M20.011 19.995h0.013"></path>
</symbol>
<symbol id="dog" viewBox="0 0 32 32">
<path fill="none" stroke="#5d5d5d" style="stroke: var(--color2, #5d5d5d)" stroke-linejoin="round" stroke-linecap="round" stroke-miterlimit="4" stroke-width="2.6667" d="M13.155 6.933c0-1.853-2.103-3.324-4.667-2.896-3.764 0.627-5.484 8.008-5.333 9.333 0.107 0.937 2.3 2.296 4.875 1.333 1.681-0.629 2.613-1.933 3.125-3.333"></path>
<path fill="none" stroke="#5d5d5d" style="stroke: var(--color2, #5d5d5d)" stroke-linejoin="round" stroke-linecap="round" stroke-miterlimit="4" stroke-width="2.6667" d="M18.845 6.933c0-1.853 2.103-3.324 4.667-2.896 3.764 0.627 5.484 8.008 5.333 9.333-0.107 0.937-2.3 2.296-4.875 1.333-1.681-0.629-2.473-1.933-2.985-3.333"></path>
<path fill="none" stroke="#5d5d5d" style="stroke: var(--color2, #5d5d5d)" stroke-linejoin="round" stroke-linecap="round" stroke-miterlimit="4" stroke-width="2.6667" d="M10.489 18.704v0.667"></path>
<path fill="none" stroke="#5d5d5d" style="stroke: var(--color2, #5d5d5d)" stroke-linejoin="round" stroke-linecap="round" stroke-miterlimit="4" stroke-width="2.6667" d="M21.155 18.704v0.667"></path>
<path fill="none" stroke="#5d5d5d" style="stroke: var(--color2, #5d5d5d)" stroke-linejoin="round" stroke-linecap="round" stroke-miterlimit="4" stroke-width="2.6667" d="M14.822 21.704h2l-1 1-1-1z"></path>
<path fill="none" stroke="#5d5d5d" style="stroke: var(--color2, #5d5d5d)" stroke-linejoin="round" stroke-linecap="round" stroke-miterlimit="4" stroke-width="2.6667" d="M5.715 15.033c-0.373 1.441-0.561 2.924-0.56 4.412 0 5.563 4.776 8.592 10.667 8.592s10.667-3.029 10.667-8.592c0-1.415-0.216-2.933-0.657-4.412M13.507 6.924c0.762-0.15 1.538-0.223 2.315-0.22 1.040 0 2 0.144 2.881 0.408"></path>
</symbol>
<symbol id="cat" viewBox="0 0 32 32">
<path fill="none" stroke="#5d5d5d" style="stroke: var(--color2, #5d5d5d)" stroke-linejoin="round" stroke-linecap="round" stroke-miterlimit="4" stroke-width="2.6667" d="M16.007 6.789c0.893 0 1.8 0.12 2.667 0.347 2.373-2.667 6.707-3.787 8.56-3.013 1.867 0.773-0.56 9.333-0.56 9.333 0.76 1.427 1.333 2.987 1.333 4.587 0 5.947-5.373 10.080-12 10.080s-12-4-12-10.080c0-1.667 0.667-3.2 1.333-4.587 0 0-2.52-8.56-0.667-9.333s6.293 0.307 8.667 2.973c0.875-0.201 1.769-0.304 2.667-0.307z"></path>
<path fill="none" stroke="#5d5d5d" style="stroke: var(--color2, #5d5d5d)" stroke-linejoin="round" stroke-linecap="round" stroke-miterlimit="4" stroke-width="2.6667" d="M10.674 18.789v0.667"></path>
<path fill="none" stroke="#5d5d5d" style="stroke: var(--color2, #5d5d5d)" stroke-linejoin="round" stroke-linecap="round" stroke-miterlimit="4" stroke-width="2.6667" d="M21.34 18.789v0.667"></path>
<path fill="none" stroke="#5d5d5d" style="stroke: var(--color2, #5d5d5d)" stroke-linejoin="round" stroke-linecap="round" stroke-miterlimit="4" stroke-width="2.6667" d="M15.007 21.789h2l-1 1-1-1z"></path>
</symbol>
<symbol id="mouse" viewBox="0 0 32 32">
<path fill="none" stroke="#5d5d5d" style="stroke: var(--color2, #5d5d5d)" stroke-linejoin="round" stroke-linecap="round" stroke-miterlimit="4" stroke-width="2.6667" d="M22.724 6.667c0-2.267-1.733-4-4-4s-4 1.733-4 4c0 1.067 0.4 2 1.067 2.667h-1.067c-5.2 0-9.333 4.133-9.333 9.333 0 2.933 2.4 5.333 5.333 5.333"></path>
<path fill="none" stroke="#5d5d5d" style="stroke: var(--color2, #5d5d5d)" stroke-linejoin="round" stroke-linecap="round" stroke-miterlimit="4" stroke-width="2.6667" d="M22.457 5.2c0.4-0.4 0.8-0.667 1.333-0.933 2-0.8 4.4 0.133 5.2 2.133s-0.133 4.4-2.133 5.2l2.133 3.733c0.267 0.4 0.267 0.933 0.267 1.333-0.267 1.067-1.2 1.6-2.267 1.467 0 0-2.133-0.4-3.6-0.8h-0.667c-2.267 0-4 1.733-4 4"></path>
<path fill="none" stroke="#5d5d5d" style="stroke: var(--color2, #5d5d5d)" stroke-linejoin="round" stroke-linecap="round" stroke-miterlimit="4" stroke-width="2.6667" d="M17.657 24c0.512-0.573 0.849-1.28 0.969-2.039s0.020-1.536-0.289-2.239-0.815-1.302-1.455-1.726c-0.641-0.424-1.39-0.654-2.158-0.663"></path>
<path fill="none" stroke="#5d5d5d" style="stroke: var(--color2, #5d5d5d)" stroke-linejoin="round" stroke-linecap="round" stroke-miterlimit="4" stroke-width="2.6667" d="M17.391 29.333h-12c-0.707 0-1.386-0.281-1.886-0.781s-0.781-1.178-0.781-1.886c0-0.707 0.281-1.385 0.781-1.886s1.178-0.781 1.886-0.781h16"></path>
<path fill="none" stroke="#5d5d5d" style="stroke: var(--color2, #5d5d5d)" stroke-linejoin="round" stroke-linecap="round" stroke-miterlimit="4" stroke-width="2.6667" d="M21.391 12h0.013"></path>
</symbol>
<symbol id="bird" viewBox="0 0 32 32">
<path fill="none" stroke="#5d5d5d" style="stroke: var(--color2, #5d5d5d)" stroke-linejoin="round" stroke-linecap="round" stroke-miterlimit="4" stroke-width="2.6667" d="M21.333 9.34h0.013"></path>
<path fill="none" stroke="#5d5d5d" style="stroke: var(--color2, #5d5d5d)" stroke-linejoin="round" stroke-linecap="round" stroke-miterlimit="4" stroke-width="2.6667" d="M4.533 24.007h11.467c2.829 0 5.542-1.124 7.543-3.124s3.124-4.714 3.124-7.543v-4c0.003-1.136-0.357-2.244-1.027-3.161s-1.616-1.597-2.699-1.939c-1.083-0.342-2.248-0.33-3.323 0.036s-2.006 1.065-2.657 1.997l-14.293 20.4"></path>
<path fill="none" stroke="#5d5d5d" style="stroke: var(--color2, #5d5d5d)" stroke-linejoin="round" stroke-linecap="round" stroke-miterlimit="4" stroke-width="2.6667" d="M26.667 9.34l2.667 0.667-2.667 0.667"></path>
<path fill="none" stroke="#5d5d5d" style="stroke: var(--color2, #5d5d5d)" stroke-linejoin="round" stroke-linecap="round" stroke-miterlimit="4" stroke-width="2.6667" d="M13.333 24.007v4"></path>
<path fill="none" stroke="#5d5d5d" style="stroke: var(--color2, #5d5d5d)" stroke-linejoin="round" stroke-linecap="round" stroke-miterlimit="4" stroke-width="2.6667" d="M18.667 23.674v4.333"></path>
<path fill="none" stroke="#5d5d5d" style="stroke: var(--color2, #5d5d5d)" stroke-linejoin="round" stroke-linecap="round" stroke-miterlimit="4" stroke-width="2.6667" d="M9.333 24.007c1.644 0 3.248-0.507 4.594-1.451s2.368-2.28 2.928-3.826c0.559-1.546 0.629-3.227 0.199-4.814s-1.338-3.003-2.601-4.055"></path>
</symbol>
<symbol id="turtle" viewBox="0 0 32 32">
<path fill="none" stroke="#5d5d5d" style="stroke: var(--color2, #5d5d5d)" stroke-linejoin="round" stroke-linecap="round" stroke-miterlimit="4" stroke-width="2.6667" d="M16 13.333l2.667 5.333v4c0 0.354 0.141 0.693 0.391 0.943s0.589 0.391 0.943 0.391h2.667c0.354 0 0.693-0.141 0.943-0.391s0.391-0.589 0.391-0.943v-4c0-2.829-1.124-5.542-3.124-7.542s-4.714-3.124-7.543-3.124c-2.829 0-5.542 1.124-7.542 3.124s-3.124 4.714-3.124 7.542v4c0 0.354 0.14 0.693 0.391 0.943s0.589 0.391 0.943 0.391h2.667c0.354 0 0.693-0.141 0.943-0.391s0.391-0.589 0.391-0.943v-4l2.667-5.333h5.333z"></path>
<path fill="none" stroke="#5d5d5d" style="stroke: var(--color2, #5d5d5d)" stroke-linejoin="round" stroke-linecap="round" stroke-miterlimit="4" stroke-width="2.6667" d="M6.427 10.533l4.24 2.8"></path>
<path fill="none" stroke="#5d5d5d" style="stroke: var(--color2, #5d5d5d)" stroke-linejoin="round" stroke-linecap="round" stroke-miterlimit="4" stroke-width="2.6667" d="M20.24 10.533l-4.24 2.8"></path>
<path fill="none" stroke="#5d5d5d" style="stroke: var(--color2, #5d5d5d)" stroke-linejoin="round" stroke-linecap="round" stroke-miterlimit="4" stroke-width="2.6667" d="M22.573 13.333h4.093c0.707 0 1.385 0.281 1.886 0.781s0.781 1.178 0.781 1.886c0 0.707-0.281 1.385-0.781 1.886s-1.178 0.781-1.886 0.781h-24"></path>
</symbol>
<symbol id="fish" viewBox="0 0 32 32">
<path fill="none" stroke="#5d5d5d" style="stroke: var(--color2, #5d5d5d)" stroke-linejoin="round" stroke-linecap="round" stroke-miterlimit="4" stroke-width="2.6667" d="M8.667 16c1.253-4.613 6.587-8 11.333-8s8.080 3.387 9.333 8c-1.253 4.627-4.587 8-9.333 8s-10.080-3.373-11.333-8z"></path>
<path fill="none" stroke="#5d5d5d" style="stroke: var(--color2, #5d5d5d)" stroke-linejoin="round" stroke-linecap="round" stroke-miterlimit="4" stroke-width="2.6667" d="M24.001 16v0.667"></path>
<path fill="none" stroke="#5d5d5d" style="stroke: var(--color2, #5d5d5d)" stroke-linejoin="round" stroke-linecap="round" stroke-miterlimit="4" stroke-width="2.6667" d="M21.334 23.907c-1.734-2.271-2.674-5.049-2.674-7.907s0.94-5.636 2.674-7.907"></path>
<path fill="none" stroke="#5d5d5d" style="stroke: var(--color2, #5d5d5d)" stroke-linejoin="round" stroke-linecap="round" stroke-miterlimit="4" stroke-width="2.6667" d="M9.334 14.227c0-3.56-1.893-6.267-5.693-6.893-1.333 2-1.333 6.667 0.307 8.667-1.653 2-1.653 6.667-0.307 8.667 3.8-0.627 5.693-3.333 5.693-6.893"></path>
<path fill="none" stroke="#5d5d5d" style="stroke: var(--color2, #5d5d5d)" stroke-linejoin="round" stroke-linecap="round" stroke-miterlimit="4" stroke-width="2.6667" d="M13.947 9.68c-0.347-1.84-1.72-4.027-3.28-5.68h7.733c0.633-0.002 1.245 0.22 1.729 0.628s0.806 0.974 0.911 1.598l0.307 1.867"></path>
<path fill="none" stroke="#5d5d5d" style="stroke: var(--color2, #5d5d5d)" stroke-linejoin="round" stroke-linecap="round" stroke-miterlimit="4" stroke-width="2.6667" d="M21.347 23.907l-0.307 1.867c-0.104 0.624-0.427 1.191-0.911 1.599s-1.097 0.631-1.729 0.628h-5.733c1.292-1.465 1.999-3.354 1.987-5.307"></path>
</symbol>
<symbol id="heart" viewBox="0 0 33 32">
<path fill="none" stroke="#5d5d5d" style="stroke: var(--color1, #5d5d5d)" stroke-linejoin="round" stroke-linecap="round" stroke-miterlimit="4" stroke-width="2.6667" d="M26.4 18.667c1.987-1.947 4-4.28 4-7.333 0-1.945-0.773-3.81-2.148-5.185s-3.241-2.148-5.185-2.148c-2.347 0-4 0.667-6 2.667-2-2-3.653-2.667-6-2.667-1.945 0-3.81 0.773-5.185 2.148s-2.148 3.241-2.148 5.185c0 3.067 2 5.4 4 7.333l9.333 9.333 9.333-9.333z"></path>
</symbol>
<symbol id="icon-left" viewBox="0 0 32 32">
<path fill="none" stroke-linejoin="round" stroke-linecap="round" stroke-miterlimit="4" stroke-width="2.6667" d="M20 24l-8-8 8-8"></path>
</symbol>
<symbol id="icon-right" viewBox="0 0 32 32">
<path fill="none" stroke-linejoin="round" stroke-linecap="round" stroke-miterlimit="4" stroke-width="2.6667" d="M12 24l8-8-8-8"></path>
</symbol>
</defs>
</svg>
