<svg width="216" height="32" viewBox="0 0 216 32" fill="none" xmlns="http://www.w3.org/2000/svg">
<g clip-path="url(#clip0_186_112)">
<path d="M26.5 16C27.8807 16 29 14.8807 29 13.5C29 12.1193 27.8807 11 26.5 11C25.1193 11 24 12.1193 24 13.5C24 14.8807 25.1193 16 26.5 16Z" fill="#34955D" stroke="#34955D" stroke-width="1.5" stroke-linecap="round" stroke-linejoin="round"/>
<path d="M5.5 16C6.88071 16 8 14.8807 8 13.5C8 12.1193 6.88071 11 5.5 11C4.11929 11 3 12.1193 3 13.5C3 14.8807 4.11929 16 5.5 16Z" fill="#34955D" stroke="#34955D" stroke-width="1.5" stroke-linecap="round" stroke-linejoin="round"/>
<path d="M11.5 10C12.8807 10 14 8.88071 14 7.5C14 6.11929 12.8807 5 11.5 5C10.1193 5 9 6.11929 9 7.5C9 8.88071 10.1193 10 11.5 10Z" fill="#34955D" stroke="#34955D" stroke-width="1.5" stroke-linecap="round" stroke-linejoin="round"/>
<path d="M20.5 10C21.8807 10 23 8.88071 23 7.5C23 6.11929 21.8807 5 20.5 5C19.1193 5 18 6.11929 18 7.5C18 8.88071 19.1193 10 20.5 10Z" fill="#34955D" stroke="#34955D" stroke-width="1.5" stroke-linecap="round" stroke-linejoin="round"/>
<path d="M15.9999 13C15.0248 13.0004 14.0761 13.3175 13.2968 13.9036C12.5174 14.4898 11.9496 15.3132 11.6787 16.25C11.2784 17.6279 10.3497 18.7916 9.09493 19.4875C8.18404 19.9732 7.49618 20.7922 7.17518 21.7733C6.85418 22.7544 6.9249 23.8216 7.37255 24.7517C7.82019 25.6819 8.61011 26.403 9.57711 26.7642C10.5441 27.1255 11.6133 27.0989 12.5612 26.69C14.7639 25.7869 17.2335 25.7869 19.4362 26.69C20.384 27.0989 21.4532 27.1255 22.4202 26.7642C23.3873 26.403 24.1772 25.6819 24.6248 24.7517C25.0725 23.8216 25.1432 22.7544 24.8222 21.7733C24.5012 20.7922 23.8133 19.9732 22.9024 19.4875C21.6484 18.7914 20.7205 17.6276 20.3212 16.25C20.0503 15.3132 19.4824 14.4898 18.7031 13.9036C17.9238 13.3175 16.9751 13.0004 15.9999 13Z" fill="#34955D" stroke="#34955D" stroke-width="1.5" stroke-linecap="round" stroke-linejoin="round"/>
</g>
<path d="M142.97 25.7422V24.3477C142.861 24.4753 142.706 24.6348 142.506 24.8262C142.314 25.0085 141.89 25.2546 141.234 25.5645C140.578 25.8652 139.894 26.0156 139.183 26.0156C137.816 26.0156 136.704 25.6374 135.847 24.8809C134.991 24.1152 134.562 23.1901 134.562 22.1055C134.562 20.9844 134.922 20.0501 135.642 19.3027C136.362 18.5553 137.356 18.0677 138.623 17.8398L142.97 17.0605C142.97 16.4863 142.761 16.0169 142.342 15.6523C141.922 15.2878 141.339 15.1055 140.592 15.1055C139.972 15.1055 139.407 15.224 138.896 15.4609C138.386 15.6888 138.026 15.9258 137.816 16.1719L137.502 16.5L135.41 14.4082C135.465 14.3353 135.538 14.2396 135.629 14.1211C135.729 13.9935 135.943 13.7793 136.271 13.4785C136.608 13.1777 136.973 12.9134 137.365 12.6855C137.757 12.4486 138.272 12.2344 138.91 12.043C139.548 11.8424 140.2 11.7422 140.865 11.7422C142.597 11.7422 144.01 12.2617 145.103 13.3008C146.197 14.3307 146.744 15.6296 146.744 17.1973V25.7422H142.97ZM140.168 22.9395C141.024 22.9395 141.704 22.6706 142.205 22.1328C142.715 21.5859 142.97 20.8294 142.97 19.8633V19.4395L139.894 20C138.864 20.1641 138.349 20.679 138.349 21.5449C138.349 22.4746 138.955 22.9395 140.168 22.9395Z" fill="#34955D"/>
<path d="M131.623 12.0156V25.7422H127.836V12.0156H131.623ZM131.295 6.57422C131.696 6.95703 131.896 7.46745 131.896 8.10547C131.896 8.73438 131.696 9.24023 131.295 9.62305C130.894 10.0059 130.347 10.1973 129.654 10.1973C129.016 10.1973 128.506 10.0059 128.123 9.62305C127.749 9.24023 127.562 8.73438 127.562 8.10547C127.562 7.46745 127.754 6.95703 128.136 6.57422C128.519 6.19141 129.025 6 129.654 6C130.347 6 130.894 6.19141 131.295 6.57422Z" fill="#34955D"/>
<path d="M118.306 26.0156C117.523 26.0156 116.789 25.8561 116.105 25.5371C115.431 25.209 114.952 24.8854 114.67 24.5664L114.246 24.0605V31.6211H110.472V12.0156H114.246V13.6973C114.282 13.6426 114.337 13.5742 114.41 13.4922C114.492 13.4102 114.656 13.2598 114.902 13.041C115.157 12.8132 115.431 12.6126 115.722 12.4395C116.014 12.2572 116.392 12.0977 116.857 11.9609C117.322 11.8151 117.805 11.7422 118.306 11.7422C120.084 11.7422 121.624 12.4349 122.927 13.8203C124.24 15.1966 124.896 16.8828 124.896 18.8789C124.896 20.875 124.24 22.5658 122.927 23.9512C121.624 25.3275 120.084 26.0156 118.306 26.0156ZM119.988 16.1719C119.341 15.4609 118.548 15.1055 117.609 15.1055C116.679 15.1055 115.886 15.4609 115.23 16.1719C114.574 16.8737 114.246 17.776 114.246 18.8789C114.246 19.9818 114.574 20.8887 115.23 21.5996C115.886 22.3105 116.679 22.666 117.609 22.666C118.548 22.666 119.341 22.3105 119.988 21.5996C120.644 20.8887 120.972 19.9818 120.972 18.8789C120.972 17.776 120.644 16.8737 119.988 16.1719Z" fill="#34955D"/>
<path d="M98.031 16.2949C97.3656 16.9967 97.033 17.8626 97.033 18.8926C97.033 19.9134 97.3656 20.7747 98.031 21.4766C98.6964 22.1693 99.4848 22.5156 100.396 22.5156C101.308 22.5156 102.096 22.1693 102.761 21.4766C103.427 20.7747 103.76 19.9134 103.76 18.8926C103.76 17.8626 103.427 16.9967 102.761 16.2949C102.096 15.5931 101.308 15.2422 100.396 15.2422C99.4848 15.2422 98.6964 15.5931 98.031 16.2949ZM105.496 13.8887C106.945 15.3105 107.67 16.974 107.67 18.8789C107.67 20.7839 106.945 22.4518 105.496 23.8828C104.056 25.3047 102.356 26.0156 100.396 26.0156C98.4366 26.0156 96.7322 25.3047 95.283 23.8828C93.8337 22.4518 93.1091 20.7839 93.1091 18.8789C93.1091 16.974 93.8337 15.3105 95.283 13.8887C96.7322 12.4577 98.4366 11.7422 100.396 11.7422C102.356 11.7422 104.056 12.4577 105.496 13.8887Z" fill="#34955D"/>
<path d="M84.865 10.4844V7.96875H88.2283V12.3027H91.0173V15.666H88.2283V21.1211C88.2283 21.5495 88.3832 21.9141 88.6931 22.2148C89.0121 22.5156 89.4132 22.666 89.8962 22.666C90.1423 22.666 90.3793 22.6432 90.6072 22.5977C90.8442 22.543 91.0219 22.4883 91.1404 22.4336L91.3045 22.3789V25.6055C90.5571 25.888 89.714 26.0247 88.7752 26.0156C85.8858 26.0156 84.4412 24.4297 84.4412 21.2578V15.666H82.0623V12.3027H83.3201C83.7485 12.3027 84.113 12.1341 84.4138 11.7969C84.7146 11.4596 84.865 11.0221 84.865 10.4844Z" fill="#34955D"/>
<path d="M73.5173 10.4844V7.96875H76.8806V12.3027H79.6697V15.666H76.8806V21.1211C76.8806 21.5495 77.0356 21.9141 77.3455 22.2148C77.6645 22.5156 78.0655 22.666 78.5486 22.666C78.7947 22.666 79.0317 22.6432 79.2595 22.5977C79.4965 22.543 79.6742 22.4883 79.7927 22.4336L79.9568 22.3789V25.6055C79.2094 25.888 78.3663 26.0247 77.4275 26.0156C74.5382 26.0156 73.0935 24.4297 73.0935 21.2578V15.666H70.7146V12.3027H71.9724C72.4008 12.3027 72.7654 12.1341 73.0662 11.7969C73.367 11.4596 73.5173 11.0221 73.5173 10.4844Z" fill="#34955D"/>
<path d="M68.8826 20.1367H58.9431C59.089 20.8841 59.4854 21.5176 60.1326 22.0371C60.7797 22.5475 61.5955 22.8027 62.5798 22.8027C63.2908 22.8027 63.947 22.666 64.5486 22.3926C65.1593 22.11 65.5877 21.8275 65.8337 21.5449L66.2302 21.1211L68.1853 23.6367L67.9392 23.8828C67.8207 24.0013 67.5746 24.1973 67.2009 24.4707C66.8272 24.7441 66.4308 24.9902 66.0115 25.209C65.5922 25.4186 65.0453 25.6055 64.3709 25.7695C63.7055 25.9336 63.0173 26.0156 62.3064 26.0156C60.2921 26.0156 58.574 25.3184 57.1521 23.9238C55.7302 22.5202 55.0193 20.8385 55.0193 18.8789C55.0193 16.9193 55.7211 15.2422 57.1248 13.8477C58.5284 12.444 60.2101 11.7422 62.1697 11.7422C64.1293 11.7422 65.7608 12.3984 67.0642 13.7109C68.3676 15.0143 69.0193 16.6458 69.0193 18.6055L68.8826 20.1367ZM64.1931 15.6797C63.6462 15.2057 62.9718 14.9688 62.1697 14.9688C61.3676 14.9688 60.684 15.2012 60.1189 15.666C59.5629 16.1309 59.171 16.737 58.9431 17.4844H65.2459C65.1 16.7552 64.7491 16.1536 64.1931 15.6797Z" fill="#34955D"/>
<path d="M38.2439 6.13672H46.5017C48.516 6.13672 50.184 6.77018 51.5056 8.03711C52.8364 9.29492 53.5017 10.8581 53.5017 12.7266C53.5017 14.5859 52.8409 16.1491 51.5193 17.416C50.1977 18.6738 48.5252 19.3027 46.5017 19.3027H42.4548V25.7422H38.2439V6.13672ZM46.365 9.92383H42.4548V15.5156H46.365C47.2035 15.5156 47.9008 15.2467 48.4568 14.709C49.0219 14.1712 49.3045 13.5104 49.3045 12.7266C49.3045 11.9427 49.0219 11.2819 48.4568 10.7441C47.9008 10.1973 47.2035 9.92383 46.365 9.92383Z" fill="#34955D"/>
<defs>
<clipPath id="clip0_186_112">
<rect width="32" height="32" fill="white"/>
</clipPath>
</defs>
</svg>
